<svg xmlns="http://www.w3.org/2000/svg" width="27.282" height="25.168" viewBox="0 0 27.282 25.168"><defs><style>.a{fill:#3f67fb;}</style></defs><path class="a" d="M63.094,78.805a2.324,2.324,0,0,1,.3,2.114l-4.5,14.844a3.378,3.378,0,0,1-1.254,1.762,3.272,3.272,0,0,1-2.007.713H40.5a4.007,4.007,0,0,1-2.433-.877,4.609,4.609,0,0,1-1.629-2.154,2.982,2.982,0,0,1-.034-2.08q0-.065.048-.442t.065-.606a.912.912,0,0,0-.048-.352.809.809,0,0,1-.048-.319,1.051,1.051,0,0,1,.13-.344,3.691,3.691,0,0,1,.271-.386,3.69,3.69,0,0,0,.271-.386,10.955,10.955,0,0,0,.738-1.5,8.8,8.8,0,0,0,.491-1.5,1.3,1.3,0,0,0,.008-.491,1.5,1.5,0,0,1-.008-.459,1.354,1.354,0,0,1,.279-.459,2.587,2.587,0,0,0,.279-.377A9.986,9.986,0,0,0,39.568,84a6.7,6.7,0,0,0,.409-1.474A2.318,2.318,0,0,0,39.935,82q-.059-.377.008-.459a1.293,1.293,0,0,1,.361-.5,5.011,5.011,0,0,0,.361-.369,6.815,6.815,0,0,0,.7-1.384,6.173,6.173,0,0,0,.451-1.581,1.351,1.351,0,0,0-.048-.417,1.09,1.09,0,0,1-.034-.434.978.978,0,0,1,.147-.3,4.39,4.39,0,0,1,.3-.377q.182-.212.279-.344a3.931,3.931,0,0,0,.271-.5q.141-.3.245-.573t.262-.589a3.005,3.005,0,0,1,.319-.524,1.826,1.826,0,0,1,.434-.386,1.1,1.1,0,0,1,.589-.189,3.4,3.4,0,0,1,.778.09l-.017.048a4.589,4.589,0,0,1,.835-.147H58.635a2.16,2.16,0,0,1,1.869.919,2.337,2.337,0,0,1,.3,2.131l-4.49,14.844a6.373,6.373,0,0,1-1.172,2.514,3.033,3.033,0,0,1-2.106.566H38.794a.723.723,0,0,0-.623.245.748.748,0,0,0-.017.7q.392,1.147,2.359,1.147H55.636a1.822,1.822,0,0,0,.919-.254,1.171,1.171,0,0,0,.573-.679l4.916-16.171a2.622,2.622,0,0,0,.082-.933,2.161,2.161,0,0,1,.967.7Zm-17.433.034a.428.428,0,0,0,.034.369.358.358,0,0,0,.327.155h9.961a.682.682,0,0,0,.417-.155.741.741,0,0,0,.271-.369l.344-1.049a.428.428,0,0,0-.034-.369.358.358,0,0,0-.327-.155H46.692a.682.682,0,0,0-.417.155A.741.741,0,0,0,46,77.79ZM44.3,83.033a.428.428,0,0,0,.034.369.358.358,0,0,0,.327.155h9.961a.682.682,0,0,0,.417-.155.741.741,0,0,0,.271-.369l.344-1.049a.428.428,0,0,0-.034-.369.358.358,0,0,0-.327-.155H45.333a.682.682,0,0,0-.417.155.741.741,0,0,0-.271.369Z" transform="translate(-36.234 -73.07)"/></svg>