<?xml version="1.0" encoding="UTF-8"?>
<svg id="a" data-name="レイヤー 1" xmlns="http://www.w3.org/2000/svg" width="40.6" height="32.7" viewBox="0 0 40.6 32.7">
  <path d="M30.2,19.1c-1.1-5.9-2.3-12.7-4-15-1.5-2-3.6-3.2-5.9-3.2h0c-2.2,0-4.3,1.1-5.7,3.1-1.7,2.4-2.9,9.1-4,15-.6,3.2-1.1,6.4-1.8,8.7H31.9c-.6-2.3-1.2-5.4-1.7-8.6Z" style="fill: rgba(255, 0, 0, .1); fill-rule: evenodd;"/>
  <path d="M35.7,32.7s0,0-.1,0c-1,0-1.8-.8-2.6-2.1-1.1-1.9-1.9-6.5-2.8-11.5-1.1-5.9-2.3-12.7-4-15-1.5-2-3.6-3.2-5.9-3.2h0c-2.2,0-4.3,1.1-5.7,3.1-1.7,2.4-2.9,9.1-4,15-.9,5-1.7,9.7-2.8,11.6-.8,1.4-1.6,2.1-2.6,2.1-1.8,0-3.5-2.1-5.2-4.4l.7-.5c1.5,2.1,3.1,4.2,4.5,4.1,.6,0,1.3-.6,1.9-1.7,1-1.8,1.8-6.4,2.7-11.3,1.1-6.3,2.3-12.9,4.1-15.4,1.6-2.2,3.9-3.4,6.4-3.4h0c2.6,0,5,1.3,6.6,3.6,1.8,2.5,3,9.1,4.1,15.4,.9,4.9,1.7,9.5,2.7,11.2,.6,1.1,1.2,1.7,1.9,1.7,1.3,0,2.8-2,4.3-4l.7,.5c-1.6,2.2-3.2,4.3-4.9,4.3Z" style="fill: red;"/>
</svg>