<?xml version="1.0" encoding="UTF-8"?>
<svg id="a" data-name="レイヤー 1" xmlns="http://www.w3.org/2000/svg" width="10.7" height="39.7" viewBox="0 0 10.7 39.7">
  <rect x="4.2" y="9.7" width="2.2" height="1" style="fill: #000026;"/>
  <rect y="4.2" width="1" height="2.2" style="fill: #000026;"/>
  <polygon points="1 2 0 2 0 0 2 0 2 1 1 1 1 2" style="fill: #000026;"/>
  <rect x="4.2" width="2.2" height="1" style="fill: #000026;"/>
  <polygon points="10.7 2 9.7 2 9.7 1 8.7 1 8.7 0 10.7 0 10.7 2" style="fill: #000026;"/>
  <rect x="9.7" y="4.2" width="1" height="2.2" style="fill: #000026;"/>
  <rect x="4.2" y="19.3" width="2.2" height="1" style="fill: #000026;"/>
  <rect y="13.9" width="1" height="2.2" style="fill: #000026;"/>
  <polygon points="1 9.7 1 8.7 0 8.7 0 11.7 1 11.7 1 10.7 2 10.7 2 9.7 1 9.7" style="fill: #000026;"/>
  <rect x="4.2" y="9.7" width="2.2" height="1" style="fill: #000026;"/>
  <polygon points="9.7 8.7 9.7 9.7 8.7 9.7 8.7 10.7 9.7 10.7 9.7 11.7 10.7 11.7 10.7 8.7 9.7 8.7" style="fill: #000026;"/>
  <rect x="9.7" y="13.9" width="1" height="2.2" style="fill: #000026;"/>
  <rect y="23.6" width="1" height="2.2" style="fill: #000026;"/>
  <polygon points="1 19.3 1 18.3 0 18.3 0 21.3 1 21.3 1 20.3 2 20.3 2 19.3 1 19.3" style="fill: #000026;"/>
  <rect x="4.2" y="19.3" width="2.2" height="1" style="fill: #000026;"/>
  <polygon points="9.7 18.3 9.7 19.3 8.7 19.3 8.7 20.3 9.7 20.3 9.7 21.3 10.7 21.3 10.7 18.3 9.7 18.3" style="fill: #000026;"/>
  <rect x="9.7" y="23.6" width="1" height="2.2" style="fill: #000026;"/>
  <rect x="1" y="30" width="8.7" height="8.7" style="fill: #d3d3d3;"/>
  <path d="M9.7,28v1H1v-1H0v11.7H10.7v-11.7h-1Zm0,10.7H1v-8.7H9.7v8.7Z" style="fill: #000026;"/>
</svg>