<?xml version="1.0" encoding="UTF-8"?>
<svg id="a" data-name="レイヤー 1" xmlns="http://www.w3.org/2000/svg" width="10.7" height="39.8" viewBox="0 0 10.7 39.8">
  <rect y="5.3" width="1" height="3.3" style="fill: #000026;"/>
  <rect x="1" y="20.3" width="8.7" height="18.5" style="fill: #d3d3d3;"/>
  <path d="M9.7,18.3v1H1v-1H0v21.5H10.7V18.3h-1Zm0,20.5H1V20.3H9.7v18.5Z" style="fill: #000026;"/>
  <path d="M1,15.1H0v-3.3H1v3.3Z" style="fill: #000026;"/>
  <polygon points="1 2 0 2 0 0 2 0 2 1 1 1 1 2" style="fill: #000026;"/>
  <rect x="4.2" width="2.2" height="1" style="fill: #000026;"/>
  <polygon points="10.7 2 9.7 2 9.7 1 8.7 1 8.7 0 10.7 0 10.7 2" style="fill: #000026;"/>
  <rect x="9.7" y="11.8" width="1" height="3.3" style="fill: #000026;"/>
  <path d="M10.7,8.5h-1v-3.3h1v3.3Z" style="fill: #000026;"/>
</svg>