<?xml version="1.0" encoding="UTF-8"?>
<svg id="a" data-name="レイヤー 1" xmlns="http://www.w3.org/2000/svg" width="32.9" height="27.8" viewBox="0 0 32.9 27.8">
  <path d="M16.5,0C8.5,0,0,1.7,0,4.9V22.9c0,3.2,8.5,4.9,16.5,4.9s16.5-1.7,16.5-4.9V4.9C32.9,1.7,24.5,0,16.5,0Zm0,.9c9.2,0,15.6,2.1,15.6,4s-6.4,4-15.6,4S.9,6.8,.9,4.9,7.3,.9,16.5,.9Zm0,26c-9.2,0-15.6-2.1-15.6-4V6.6c2.4,2.1,9.1,3.2,15.6,3.2s13.2-1.1,15.6-3.2V22.9c0,1.9-6.4,4-15.6,4Z"/>
  <polygon points="22 10.7 21.8 10.7 21.8 10.5 11.5 10.5 11.5 11.4 21.1 11.4 21.1 15.1 11.5 15.1 11.5 16 21.1 16 21.1 19.7 11.5 19.7 11.5 20.7 21.1 20.7 21.1 24.4 11.5 24.4 11.5 25.3 21.8 25.3 21.8 25.1 22 25.1 22 10.7"/>
</svg>