<?xml version="1.0" encoding="UTF-8"?>
<svg id="a" data-name="レイヤー 1" xmlns="http://www.w3.org/2000/svg" width="42.3" height="25.6" viewBox="0 0 42.3 25.6">
  <path d="M11.6,25.6c-3,0-6.6-.4-11.2-1.3H0V0H42.3V20.9h-.4c-8.8,0-13.9,1.4-18.4,2.7-3.7,1-7.1,2-11.8,2ZM.9,23.4c11.4,2.3,16.5,.9,22.3-.7,4.5-1.2,9.5-2.6,18.2-2.7V.9H.9V23.4Z" style="fill: #000026;"/>
  <path d="M21.2,18.3c-2.9,0-5.3-2.4-5.3-5.3s2.4-5.3,5.3-5.3,5.3,2.4,5.3,5.3-2.4,5.3-5.3,5.3Zm0-9.7c-2.4,0-4.4,2-4.4,4.4s2,4.4,4.4,4.4,4.4-2,4.4-4.4-2-4.4-4.4-4.4Z" style="fill: #000026;"/>
  <g style="isolation: isolate;">
    <path d="M19.4,15.8v-5.1h3.5v.9h-2.5v1.2h2.1v.9h-2.1v2.2h-1Z" style="fill: #000026;"/>
  </g>
</svg>