<?xml version="1.0" encoding="UTF-8"?>
<svg id="a" data-name="レイヤー 1" xmlns="http://www.w3.org/2000/svg" width="29.7" height="29.7" viewBox="0 0 29.7 29.7">
  <path d="M22.1,29.7c-1.1,0-2.2-.1-3.4-.4-3.9-1-8-3.4-11.4-6.8S1.4,14.9,.4,11C-.5,7,.1,3.6,2.3,1.4l.7-.7c.9-.9,2.6-1,3.6,0l3.9,3.9c1,1,1,2.6,0,3.6l-2.7,2.7c1.2,2.2,2.8,4.3,4.8,6.3s4.1,3.6,6.3,4.8l2.7-2.7c.9-.9,2.6-.9,3.6,0l3.9,3.9c.5,.5,.7,1.1,.7,1.8s-.3,1.3-.7,1.8l-.7,.7c-1.5,1.5-3.6,2.3-6.2,2.3ZM4.8,1c-.4,0-.8,.2-1.1,.4l-.7,.7C1.1,4,.5,7.1,1.4,10.7c.9,3.8,3.2,7.7,6.5,11,3.3,3.3,7.2,5.6,11,6.5,3.6,.9,6.8,.3,8.7-1.6l.7-.7c.3-.3,.4-.7,.4-1.1s-.2-.8-.4-1.1l-3.9-3.9c-.6-.6-1.6-.6-2.2,0l-3.1,3.1h-.6c-2.3-1.3-4.7-3-6.8-5.1s-3.9-4.5-5.1-6.8l-.2-.3,.3-.4,2.9-2.9c.6-.6,.6-1.6,0-2.2L5.9,1.4c-.3-.3-.7-.5-1.1-.5Z" style="fill: #000026;"/>
  <path d="M28.2,16.9s0,0,0,0c-.3,0-.5-.3-.5-.5,0-.3,0-.7,0-1,0-7.5-6.1-13.6-13.6-13.6s-.5,0-.8,0c-.3,0-.5-.2-.5-.5,0-.3,.2-.5,.5-.5,.3,0,.6,0,.8,0,8.1,0,14.6,6.6,14.6,14.6s0,.7,0,1.1c0,.3-.2,.5-.5,.5Z" style="fill: #000026;"/>
  <path d="M23.3,16.9s0,0,0,0c-.3,0-.5-.3-.4-.6,0-.3,0-.6,0-1,0-4.8-3.9-8.7-8.7-8.7s-.5,0-.8,0c-.3,0-.5-.2-.5-.5s.2-.5,.5-.5c.3,0,.6,0,.9,0,5.4,0,9.7,4.4,9.7,9.7s0,.7,0,1.1c0,.3-.2,.4-.5,.4Z" style="fill: #000026;"/>
</svg>