<?xml version="1.0" encoding="utf-8"?>
<!-- Generator: Adobe Illustrator 26.0.3, SVG Export Plug-In . SVG Version: 6.00 Build 0)  -->
<svg version="1.1" id="レイヤー_1" xmlns="http://www.w3.org/2000/svg" xmlns:xlink="http://www.w3.org/1999/xlink" x="0px"
	 y="0px" viewBox="0 0 256 256" style="enable-background:new 0 0 256 256;" xml:space="preserve">
<style type="text/css">
	.st0{fill:#CCCCCC;}
	.st1{fill:#FFFFFF;stroke:#000000;stroke-width:2.5952;stroke-miterlimit:10;}
</style>
<g>
	<g>
		<g>
			<rect x="7.3" y="16.4" class="st0" width="55.8" height="223.2"/>
			<path d="M61.8,17.7v220.6H8.6V17.7H61.8 M64.4,15.1H6v225.8h58.4V15.1L64.4,15.1z"/>
		</g>
		<g>
			<rect x="192.9" y="16.4" class="st0" width="55.8" height="223.2"/>
			<path d="M247.4,17.7v220.6h-53.2V17.7H247.4 M250,15.1h-58.4v225.8H250V15.1L250,15.1z"/>
		</g>
		<line class="st1" x1="64.4" y1="128" x2="169.5" y2="128"/>
		<polygon points="169.5,119.6 193,128 169.5,136.4 		"/>
	</g>
	<!-- <g>
		<path d="M103.8,61.3c-4.4,3.7-8,10.4-8,18.5c0,8.3,3.7,15,8,18.5v0.2h-2.4c-4.1-3.7-7.7-10.4-7.7-18.7s3.6-15,7.7-18.7h2.4V61.3z"
			/>
		<path d="M112.1,75.3c-1.5,2.5-3.2,4.8-4.9,6.7c-0.3-0.6-1-1.9-1.4-2.5c3.9-4.2,7.7-11.1,10-18.1l3.2,1.1c-0.2,0.3-0.4,0.4-0.9,0.4
			c-1,2.8-2.3,5.6-3.7,8.3l1.1,0.3c-0.1,0.2-0.3,0.4-0.8,0.5v26.6h-2.6V75.3z M140.2,74.2l0.5-0.1c1,0.4,1.3,0.6,1.7,0.8
			c-0.1,0.2-0.2,0.4-0.4,0.4c-1.4,6-3.9,10.9-7,14.8c2.7,2.7,5.9,4.9,9.6,6.1c-0.6,0.5-1.4,1.6-1.8,2.3c-3.7-1.4-6.8-3.7-9.5-6.5
			c-2.8,2.9-6,5.1-9.6,6.6c-0.4-0.6-1.2-1.7-1.8-2.2c3.6-1.4,6.9-3.6,9.6-6.4c-2.8-3.5-4.9-7.6-6.5-12.3l2.4-0.6
			c1.3,4.1,3.3,7.8,5.9,11c2.5-3.1,4.5-6.8,5.7-11.4h-15.3c-0.1,6.7-0.8,15.8-5.1,21.9c-0.5-0.5-1.6-1.4-2.2-1.6
			c4.2-6.1,4.6-14.8,4.6-21.1V63.3h22.6v2.6h-19.9v8.4H140.2z"/>
		<path d="M146.8,98.3c4.4-3.7,8-10.4,8-18.5c0-8.3-3.7-15-8-18.5v-0.2h2.4c4.1,3.7,7.7,10.4,7.7,18.7s-3.6,15-7.7,18.7h-2.4V98.3z"
			/>
	</g> -->
</g>
</svg>
