<svg xmlns="http://www.w3.org/2000/svg" width="15" height="15" viewBox="0 0 15 15"><defs><style>.a{fill:#000026;}</style></defs><path class="a" d="M135.5,128a7.5,7.5,0,1,0,7.5,7.5A7.522,7.522,0,0,0,135.5,128Zm.875,13.25a1.35,1.35,0,0,1-.875.375,1.238,1.238,0,0,1-.875-2.125c.125-.25.375-.25.75-.25a1.282,1.282,0,0,1,1.25,1.25A1.777,1.777,0,0,1,136.375,141.25Zm2.25-6c-.125.125-.625.625-1.375,1.25a1.28,1.28,0,0,0-.625.75,2.355,2.355,0,0,0-.25,1v.25H134.5v-.25a2.666,2.666,0,0,1,.375-1.5c.125-.5.75-1.125,1.875-2l.25-.25a1.419,1.419,0,0,0,.375-1,1.6,1.6,0,0,0-.5-1.25,1.91,1.91,0,0,0-1.25-.5,1.7,1.7,0,0,0-1.5.625,2.121,2.121,0,0,0-.5,1.625H131.75a3.229,3.229,0,0,1,1.125-2.625,4.218,4.218,0,0,1,2.875-1,3.521,3.521,0,0,1,2.625.875,2.746,2.746,0,0,1,1,2.25A3.141,3.141,0,0,1,138.625,135.25Z" transform="translate(-128 -128)"/></svg>