<?xml version="1.0" encoding="UTF-8"?>
<svg id="a" data-name="レイヤー 1" xmlns="http://www.w3.org/2000/svg" width="25.1" height="33.7" viewBox="0 0 25.1 33.7">
  <path d="M10.7,17.5h-1.3v-1.3c0-.6-.8-.6-.8,0v1.8c0,.2,.2,.4,.4,.4h1.8c.2,0,.4-.2,.4-.4s-.2-.4-.4-.4Z" style="fill: #3f67fb;"/>
  <path d="M20.1,6.3h-1.6c-.6,0-.6,.8,0,.8h1.2v1.2c0,.6,.8,.6,.8,0v-1.6c0-.2-.2-.4-.4-.4Z" style="fill: #3f67fb;"/>
  <path d="M9.3,8.4v-1.3h1.3c.6,0,.6-.8,0-.8h-1.7c-.2,0-.4,.2-.4,.4v1.7c0,.6,.8,.6,.8,0Z" style="fill: #3f67fb;"/>
  <circle cx="14.8" cy="22.9" r=".9" style="fill: #3f67fb;"/>
  <path d="M24.3,6.6c.4-.3,.7-.7,.8-1.1s0-.9-.2-1.4c-.3-.4-.7-.7-1.1-.8-.5-.1-.9,0-1.3,.2,0,0,0,0-.1,0v-1c0-1.4-1.2-2.6-2.6-2.6H9.5c-1.4,0-2.6,1.2-2.6,2.6v3.5c-1-.7-2.5,0-2.5,1.6,0,4.4-3.2,7.8-2.4,10.4,.3,.9,1.1,3.4,1.1,4.7L.1,25.4c-.2,.2-.2,.4,0,.6,.2,.2,.4,.2,.6,0l2.7-2.4s0,0,0,0c0,0,0,0,0,0l7.6,8.2-1.2,1.1c-.2,.2-.2,.4,0,.6,0,0,.2,.1,.3,.1s.2,0,.3-.1l1.5-1.4c.2-.2,.2-.4,0-.6L4,22.9c0-1.3-.6-3.3-1-4.5,0-.2-.1-.4-.2-.6-.6-2.1,2.4-5.6,2.4-10.1,0-1.3,1.5-1.5,1.7,0v15.4c0,1.4,1.2,2.6,2.6,2.6h8.2c-1.1,1.7-2.8,2.4-4.1,2.9-.7,.3-1.3,.5-1.7,.9-.2,.1-.2,.4,0,.6,0,.1,.2,.2,.3,.2s.2,0,.2,0c.4-.3,.9-.5,1.6-.8,1.5-.6,3.4-1.4,4.7-3.5,0,0,0-.1,0-.2h1c1.4,0,2.6-1.2,2.6-2.6v-3.8c.5,0,1,0,1.4-.5,.9-1,.4-2.5-.8-2.8h.4c.9-.4,1.4-1.4,1.1-2.3-.2-.6-.6-1-1.2-1.2l.9-.6c.8-.5,1.1-1.6,.5-2.4-.5-.8-1.6-1.1-2.4-.5v-1.1l2-1.3Zm-1.5-2.3c.2-.1,.5-.2,.7-.1,.3,0,.5,.2,.6,.4,.1,.2,.2,.5,.1,.7,0,.3-.2,.5-.4,.6l-1.6,1v-2.3l.5-.3Zm-2,5.7c-1.2,.8-1,2.4,.1,3h-.4c-.9,.4-1.4,1.4-1.1,2.3,.2,.6,.7,1,1.2,1.2-.3,.3-.5,.6-.5,1h-1.5c-.6,0-.6,.8,0,.8h1.6s0,0,0,0c.2,.5,.7,1,1.2,1.1v1H7.8V3.3h13.7v1.1c0,1.8,0,2.7,0,3.1v2l-.6,.4ZM9.5,.8h10.1c.9,0,1.7,.7,1.8,1.6H7.8c0-.9,.8-1.6,1.8-1.6Zm10.1,24.1H9.5c-1,0-1.8-.8-1.8-1.8v-2h13.7v2c0,1-.8,1.8-1.8,1.8Zm3.6-7.3c0,.5-.4,.9-.9,.9h-.6c-.8,0-1.2-.9-.7-1.5,.3-.3,.6-.3,1.3-.3,.3,0,.5,0,.6,.2,.2,.2,.3,.4,.3,.6Zm-.3-2.6c-1.8,.6-1.9,.7-2.4,.5-.5-.2-.6-.8-.4-1.2,.2-.4,.4-.4,2.2-1,.2,0,.5,0,.7,0,.7,.4,.6,1.4-.1,1.7Zm.4-5.5c.8,.2,1,1.2,.3,1.7-1.5,1-1.7,1.2-2.2,1.1-.5-.1-.8-.6-.7-1.1,.1-.5,.3-.5,1.9-1.5,.2-.1,.5-.2,.7-.1Z" style="fill: #3f67fb;"/>
  <path d="M2.8,26.1c-.8,.5,0,1.7,.7,1.2,.8-.5,0-1.7-.7-1.2Z" style="fill: #3f67fb;"/>
  <path d="M10.6,11h2.6v-2.7h-2.6v2.7Zm.8-1.9h1.1v1.1h-1.1v-1.1Z" style="fill: #3f67fb;"/>
  <path d="M10.6,16.2h2.6v-2.7h-2.6v2.7Zm.8-1.9h1.1v1.1h-1.1v-1.1Z" style="fill: #3f67fb;"/>
  <path d="M16.5,11h2.6v-2.7h-2.6v2.7Zm.8-1.9h1.1v1.1h-1.1v-1.1Z" style="fill: #3f67fb;"/>
  <polygon points="12.8 12.6 14.7 12.6 14.7 10.5 15.7 10.5 15.7 8.3 14.9 8.3 14.9 9.7 13.9 9.7 13.9 11.9 12.8 11.9 12.8 12.6" style="fill: #3f67fb;"/>
  <polygon points="18.5 13.4 18.5 12.6 17.5 12.6 17.5 11.7 15.5 11.7 15.5 12.5 16.7 12.5 16.7 13.4 18.5 13.4" style="fill: #3f67fb;"/>
  <polygon points="15.5 14.6 14.1 14.6 14.1 16.4 14.9 16.4 14.9 15.3 16.3 15.3 16.3 13.8 15.5 13.8 15.5 14.6" style="fill: #3f67fb;"/>
  <polygon points="18.3 15.5 17.3 15.5 17.3 16.2 19.1 16.2 19.1 14.5 18.3 14.5 18.3 15.5" style="fill: #3f67fb;"/>
  <rect x="10.5" y="11.8" width=".9" height=".8" style="fill: #3f67fb;"/>
</svg>