<svg width="612" height="516" xmlns="http://www.w3.org/2000/svg" xmlns:xlink="http://www.w3.org/1999/xlink" overflow="hidden"><defs><clipPath id="clip0"><rect x="2928" y="1400" width="612" height="516"/></clipPath></defs><g clip-path="url(#clip0)" transform="translate(-2928 -1400)"><path d="M3533 1490.67C3533 1536.87 3399.13 1574.33 3234 1574.33 3068.87 1574.33 2935 1536.87 2935 1490.67" stroke="#000000" stroke-width="13.75" stroke-miterlimit="8" fill="none" fill-rule="evenodd"/><path d="M2935 1490.67C2935 1444.46 3068.87 1407 3234 1407 3399.13 1407 3533 1444.46 3533 1490.67L3533 1825.33C3533 1871.54 3399.13 1909 3234 1909 3068.87 1909 2935 1871.54 2935 1825.33Z" stroke="#000000" stroke-width="13.75" stroke-miterlimit="8" fill="none" fill-rule="evenodd"/><path d="M3142 1599 3333.83 1599" stroke="#000000" stroke-width="13.75" stroke-miterlimit="8" fill="none" fill-rule="evenodd"/><path d="M3142 1771 3326.99 1771" stroke="#000000" stroke-width="13.75" stroke-miterlimit="8" fill="none" fill-rule="evenodd"/><path d="M3142 1857 3333.83 1857" stroke="#000000" stroke-width="13.75" stroke-miterlimit="8" fill="none" fill-rule="evenodd"/><path d="M3328 1593 3328 1863.24" stroke="#000000" stroke-width="13.75" stroke-miterlimit="8" fill="none" fill-rule="evenodd"/><path d="M3142 1685 3326.99 1685" stroke="#000000" stroke-width="13.75" stroke-miterlimit="8" fill="none" fill-rule="evenodd"/></g></svg>