<svg width="829" height="232" xmlns="http://www.w3.org/2000/svg" xmlns:xlink="http://www.w3.org/1999/xlink" overflow="hidden"><defs><clipPath id="clip0"><rect x="3237" y="366" width="829" height="232"/></clipPath></defs><g clip-path="url(#clip0)" transform="translate(-3237 -366)"><path d="M3352.06 524.188 3950.84 524.188 3950.84 544.813 3352.06 544.813ZM3362.37 565.438 3300.5 534.5 3362.37 503.563ZM3940.53 503.563 4002.4 534.5 3940.53 565.438Z"/><path d="M3631.5 535C3631.5 524.231 3640.23 515.5 3651 515.5 3661.77 515.5 3670.5 524.231 3670.5 535 3670.5 545.77 3661.77 554.5 3651 554.5 3640.23 554.5 3631.5 545.77 3631.5 535Z" stroke="#000000" stroke-width="4.58333" stroke-miterlimit="8" fill-rule="evenodd"/><text font-family="Arial,Arial_MSFontService,sans-serif" font-weight="400" font-size="83" transform="matrix(1 0 0 1 3601.11 471)">○○</text></g></svg>