<svg width="869" height="518" xmlns="http://www.w3.org/2000/svg" xmlns:xlink="http://www.w3.org/1999/xlink" overflow="hidden"><defs><clipPath id="clip0"><rect x="407" y="1077" width="869" height="518"/></clipPath></defs><g clip-path="url(#clip0)" transform="translate(-407 -1077)"><rect x="414" y="1084" width="855" height="503" stroke="#000000" stroke-width="13.75" stroke-miterlimit="8" fill="none"/><path d="M689 1084 689 1585.09" stroke="#000000" stroke-width="13.75" stroke-miterlimit="8" fill="none" fill-rule="evenodd"/><path d="M985 1086 985 1587.09" stroke="#000000" stroke-width="13.75" stroke-miterlimit="8" fill="none" fill-rule="evenodd"/><path d="M0 0 274.645 0.000360892" stroke="#000000" stroke-width="13.75" stroke-miterlimit="8" fill="none" fill-rule="evenodd" transform="matrix(-1 0 0 1 688.645 1305)"/><path d="M0 0 274.645 0.000360892" stroke="#000000" stroke-width="13.75" stroke-miterlimit="8" fill="none" fill-rule="evenodd" transform="matrix(-1 0 0 1 688.645 1411)"/><path d="M0 0 274.645 0.000360892" stroke="#000000" stroke-width="13.75" stroke-miterlimit="8" fill="none" fill-rule="evenodd" transform="matrix(-1 0 0 1 688.645 1513)"/><path d="M0 0 295.566 0.000360892" stroke="#000000" stroke-width="13.75" stroke-miterlimit="8" fill="none" fill-rule="evenodd" transform="matrix(-1 0 0 1 984.566 1362)"/><path d="M0 0 295.566 0.000360892" stroke="#000000" stroke-width="13.75" stroke-miterlimit="8" fill="none" fill-rule="evenodd" transform="matrix(-1 0 0 1 984.566 1464)"/><path d="M0 0 284.432 0.000360892" stroke="#000000" stroke-width="13.75" stroke-miterlimit="8" fill="none" fill-rule="evenodd" transform="matrix(-1 0 0 1 1269.43 1487)"/></g></svg>