<svg xmlns="http://www.w3.org/2000/svg" width="58" height="58" viewBox="0 0 58 58">
  <rect x="0.1" y="-0.1" width="58" height="58" rx="11" style="fill: #f5f5f7"/>
  <rect x="28.2" y="13.4" width="2.2" height="1" style="fill: #000026"/>
  <rect x="24" y="7.9" width="1" height="2.22" style="fill: #000026"/>
  <polygon points="25 5.7 24 5.7 24 3.7 26 3.7 26 4.7 25 4.7 25 5.7" style="fill: #000026"/>
  <rect x="28.2" y="3.7" width="2.2" height="1" style="fill: #000026"/>
  <polygon points="34.7 5.7 33.7 5.7 33.7 4.7 32.7 4.7 32.7 3.7 34.7 3.7 34.7 5.7" style="fill: #000026"/>
  <rect x="33.7" y="7.9" width="1" height="2.22" style="fill: #000026"/>
  <rect x="28.2" y="23" width="2.2" height="1" style="fill: #000026"/>
  <rect x="24" y="17.6" width="1" height="2.22" style="fill: #000026"/>
  <polygon points="25 13.4 25 12.4 24 12.4 24 15.4 25 15.4 25 14.4 26 14.4 26 13.4 25 13.4" style="fill: #000026"/>
  <rect x="28.2" y="13.4" width="2.2" height="1" style="fill: #000026"/>
  <polygon points="33.7 12.4 33.7 13.4 32.7 13.4 32.7 14.4 33.7 14.4 33.7 15.4 34.7 15.4 34.7 12.4 33.7 12.4" style="fill: #000026"/>
  <rect x="33.7" y="17.6" width="1" height="2.22" style="fill: #000026"/>
  <rect x="24" y="27.3" width="1" height="2.22" style="fill: #000026"/>
  <polygon points="25 23 25 22 24 22 24 25 25 25 25 24 26 24 26 23 25 23" style="fill: #000026"/>
  <rect x="28.2" y="23" width="2.2" height="1" style="fill: #000026"/>
  <polygon points="33.7 22 33.7 23 32.7 23 32.7 24 33.7 24 33.7 25 34.7 25 34.7 22 33.7 22" style="fill: #000026"/>
  <rect x="33.7" y="27.3" width="1" height="2.22" style="fill: #000026"/>
  <rect x="25" y="33.7" width="8.7" height="8.67" style="fill: #d3d3d3"/>
  <path d="M33.7,31.7v1H25v-1H24V43.4H34.7V31.7Zm0,10.7H25V33.7h8.7Z" style="fill: #000026"/>
</svg>
