<svg xmlns="http://www.w3.org/2000/svg" width="58" height="58" viewBox="0 0 58 58">
  <rect x="0.1" y="-0.1" width="58" height="58" rx="11" style="fill: #f5f5f7"/>
  <rect x="24" y="9" width="1" height="3.27" style="fill: #000026"/>
  <rect x="25" y="24" width="8.7" height="18.47" style="fill: #d3d3d3"/>
  <path d="M33.7,22v1H25V22H24V43.5H34.7V22Zm0,20.5H25V24h8.7Z" style="fill: #000026"/>
  <path d="M25,18.8H24V15.5h1Z" style="fill: #000026"/>
  <polygon points="25 5.7 24 5.7 24 3.7 26 3.7 26 4.7 25 4.7 25 5.7" style="fill: #000026"/>
  <rect x="28.2" y="3.7" width="2.2" height="1" style="fill: #000026"/>
  <polygon points="34.7 5.7 33.7 5.7 33.7 4.7 32.7 4.7 32.7 3.7 34.7 3.7 34.7 5.7" style="fill: #000026"/>
  <rect x="33.7" y="15.5" width="1" height="3.27" style="fill: #000026"/>
  <path d="M34.7,12.2h-1V9h1Z" style="fill: #000026"/>
</svg>
