<svg width="766" height="127" xmlns="http://www.w3.org/2000/svg" xmlns:xlink="http://www.w3.org/1999/xlink" overflow="hidden"><defs><clipPath id="clip0"><rect x="2263" y="688" width="766" height="127"/></clipPath></defs><g clip-path="url(#clip0)" transform="translate(-2263 -688)"><path d="M5.30229e-06-10.3125 82.5-10.3125 82.5 10.3125-5.30229e-06 10.3125ZM144.375-10.3124 226.875-10.3124 226.875 10.3126 144.375 10.3126ZM288.75-10.3124 371.25-10.3123 371.25 10.3127 288.75 10.3126ZM433.125-10.3123 515.625-10.3122 515.625 10.3128 433.125 10.3127ZM577.5-10.3122 650.342-10.3122 650.342 10.3128 577.5 10.3128ZM640.03-30.9372 701.905 0.000360892 640.03 30.9378Z" transform="matrix(-1 0 0 1 3028.4 751.5)"/></g></svg>