<svg width="649" height="520" xmlns="http://www.w3.org/2000/svg" xmlns:xlink="http://www.w3.org/1999/xlink" overflow="hidden"><defs><clipPath id="clip0"><rect x="1590" y="1167" width="649" height="520"/></clipPath></defs><g clip-path="url(#clip0)" transform="translate(-1590 -1167)"><path d="M1595 1613.24C1633.04 1664.69 1671.07 1716.14 1708.02 1651.3 1744.97 1586.46 1765.62 1295.04 1816.69 1224.21 1867.77 1153.38 1963.4 1155.14 2014.48 1226.32 2065.56 1297.5 2086.57 1586.46 2123.15 1651.3 2159.74 1716.14 2196.87 1665.74 2234 1615.35" stroke="#000000" stroke-width="10.3125" stroke-miterlimit="8" fill="none" fill-rule="evenodd"/><path d="M0 0 158.593 63.2341" stroke="#000000" stroke-width="10.3125" stroke-miterlimit="8" fill="none" fill-rule="evenodd" transform="matrix(-1 0 0 1 1963.59 1183)"/><path d="M0 0 240.07 84.9569" stroke="#000000" stroke-width="10.3125" stroke-miterlimit="8" fill="none" fill-rule="evenodd" transform="matrix(-1 0 0 1 2021.07 1239)"/><path d="M0 0 279.739 98.9957" stroke="#000000" stroke-width="10.3125" stroke-miterlimit="8" fill="none" fill-rule="evenodd" transform="matrix(-1 0 0 1 2040.74 1308)"/><path d="M0 0 307.389 108.78" stroke="#000000" stroke-width="10.3125" stroke-miterlimit="8" fill="none" fill-rule="evenodd" transform="matrix(-1 0 0 1 2060.39 1375)"/><path d="M0 0 336.035 118.918" stroke="#000000" stroke-width="10.3125" stroke-miterlimit="8" fill="none" fill-rule="evenodd" transform="matrix(-1 0 0 1 2073.03 1445)"/></g></svg>