<svg width="649" height="520" xmlns="http://www.w3.org/2000/svg" xmlns:xlink="http://www.w3.org/1999/xlink" overflow="hidden"><defs><clipPath id="clip0"><rect x="2917" y="1255" width="649" height="520"/></clipPath></defs><g clip-path="url(#clip0)" transform="translate(-2917 -1255)"><path d="M3241.46 1260.01C3278.23 1260.49 3314.99 1278.72 3340.59 1314.29 3382.19 1372.1 3403.9 1573.59 3430.25 1681.88L3434 1696 3049 1696 3052.81 1681.65C3079.27 1572.77 3100.73 1369.7 3142.33 1312.18 3167.93 1276.78 3204.7 1259.53 3241.46 1260.01Z" fill="#FF0000" fill-rule="evenodd" fill-opacity="0.101961"/><path d="M2922 1701.24C2960.04 1752.69 2998.07 1804.14 3035.02 1739.3 3071.97 1674.46 3092.62 1383.04 3143.69 1312.21 3194.77 1241.38 3290.4 1243.14 3341.48 1314.32 3392.56 1385.5 3413.57 1674.46 3450.15 1739.3 3486.74 1804.14 3523.87 1753.74 3561 1703.35" stroke="#FF0000" stroke-width="10.3125" stroke-miterlimit="8" fill="none" fill-rule="evenodd"/></g></svg>